<svg xmlns="http://www.w3.org/2000/svg" xmlns:xlink="http://www.w3.org/1999/xlink" width="13" height="14" viewBox="0 0 13 14"><defs><path id="otlia" d="M439 324.999h11a1 1 0 0 1 1 1v7a1 1 0 0 1-1 1h-2v3.75l-3.75-3.75H439a1 1 0 0 1-1-1v-7a1 1 0 0 1 1-1z"/><path id="otlid" d="M438 339v-6.979a1 1 0 0 0 1 .978h5.25l3.75 3.75v-3.75h2a1 1 0 0 0 1-1v-7a1 1 0 0 0-.953-.999H451v15zm0-15h.953a1 1 0 0 0-.953.977zm1-.001l-.047.001h11.094l-.047-.001zm-1 1v7.022-7.044.022z"/><mask id="otlic" width="2" height="2" x="-1" y="-1"><path fill="#fff" d="M438 325h13v13h-13z"/><use xlink:href="#otlia"/></mask><filter id="otlib" width="33" height="34" x="428" y="315" filterUnits="userSpaceOnUse"><feOffset dy="1" in="SourceGraphic" result="FeOffset1056Out"/><feGaussianBlur in="FeOffset1056Out" result="FeGaussianBlur1057Out" stdDeviation="0 0"/></filter><filter id="otlie" width="200%" height="200%" x="-50%" y="-50%"><feGaussianBlur in="SourceGraphic" result="FeGaussianBlur1063Out" stdDeviation="0 0"/></filter><mask id="otlif"><use fill="#fff" xlink:href="#otlia"/></mask></defs><g><g transform="translate(-438 -325)"><g filter="url(#otlib)"><use fill="none" stroke-opacity=".9" stroke-width="0" mask="url(&quot;#otlic&quot;)" xlink:href="#otlia"/><use fill="#fff" fill-opacity=".9" xlink:href="#otlia"/></g><use fill="#b3b3b3" xlink:href="#otlia"/><use fill="#73b4d5" xlink:href="#otlia"/><use fill-opacity=".3" stroke="#000" stroke-opacity=".3" stroke-width="0" filter="url(#otlie)" mask="url(&quot;#otlif&quot;)" xlink:href="#otlid"/></g></g></svg>