<svg xmlns="http://www.w3.org/2000/svg" xmlns:xlink="http://www.w3.org/1999/xlink" width="12" height="12" viewBox="0 0 12 12"><defs><path id="ge8ma" d="M391.964 323.98c1.597-.023 3 .776 3.024 2.983.023 2.109-5.5 7.273-5.994 7.73-.494-.457-6.017-5.621-5.994-7.73.023-2.207 1.427-3.006 3.024-2.982 1.51.022 2.833 1.328 2.97 1.467.137-.14 1.459-1.445 2.97-1.467z"/><path id="ge8md" d="M383 336v-9.991c.056 2.136 5.504 7.23 5.994 7.685.494-.458 6.017-5.622 5.994-7.73-.02-1.982-1.153-2.828-2.54-2.964H395v13zm0-13h2.54c-1.38.135-2.509.974-2.54 2.936zm5.994 1.448c-.128-.13-1.295-1.283-2.683-1.448h5.366c-1.388.165-2.555 1.317-2.683 1.448zm-2.97-1.467a4.316 4.316 0 0 0-.484.019h.77a2.78 2.78 0 0 0-.286-.02zM383 325.963v.046-.073.027zm8.964-2.982a2.78 2.78 0 0 0-.287.019h.771a4.317 4.317 0 0 0-.484-.02z"/><mask id="ge8mc" width="2" height="2" x="-1" y="-1"><path fill="#fff" d="M383 324h12v11h-12z"/><use xlink:href="#ge8ma"/></mask><filter id="ge8mb" width="32" height="32" x="373" y="314" filterUnits="userSpaceOnUse"><feOffset dy="1" in="SourceGraphic" result="FeOffset1030Out"/><feGaussianBlur in="FeOffset1030Out" result="FeGaussianBlur1031Out" stdDeviation="0 0"/></filter><filter id="ge8me" width="200%" height="200%" x="-50%" y="-50%"><feGaussianBlur in="SourceGraphic" result="FeGaussianBlur1037Out" stdDeviation="0 0"/></filter><mask id="ge8mf"><use fill="#fff" xlink:href="#ge8ma"/></mask></defs><g><g transform="translate(-383 -324)"><g filter="url(#ge8mb)"><use fill="none" stroke-opacity=".9" stroke-width="0" mask="url(&quot;#ge8mc&quot;)" xlink:href="#ge8ma"/><use fill="#fff" fill-opacity=".9" xlink:href="#ge8ma"/></g><use fill="#333" xlink:href="#ge8ma"/><use fill="#73b4d5" xlink:href="#ge8ma"/><use fill-opacity=".3" stroke="#000" stroke-opacity=".3" stroke-width="0" filter="url(#ge8me)" mask="url(&quot;#ge8mf&quot;)" xlink:href="#ge8md"/></g></g></svg>